<svg width="21" height="20" viewBox="0 0 21 20" fill="none" xmlns="http://www.w3.org/2000/svg">
<path d="M20.1681 18.1081L16.5787 14.5455C19.3814 10.9584 19.0864 5.84774 15.8657 2.62907C14.1693 0.933702 11.9075 0 9.49818 0C7.0889 0 4.82704 0.933702 3.13068 2.62907C1.43427 4.32444 0.5 6.58483 0.5 8.99269C0.5 11.4005 1.43427 13.661 3.13068 15.3563C4.82708 17.0517 7.08886 17.9854 9.49818 17.9854C11.4895 17.9854 13.4564 17.3219 15.0298 16.0689L18.5946 19.6805C18.8158 19.9016 19.0862 20 19.3814 20C19.6763 20 19.9468 19.8771 20.1682 19.6805C20.6106 19.2629 20.6106 18.5504 20.168 18.1081L20.1681 18.1081ZM16.2838 8.99265C16.2838 10.8109 15.5709 12.5061 14.2924 13.7838C13.014 15.0615 11.2931 15.7739 9.49836 15.7739C7.70366 15.7739 5.9828 15.0615 4.70429 13.7838C3.42579 12.5061 2.71295 10.7863 2.71295 8.99265C2.71295 7.17443 3.42583 5.47923 4.70429 4.20151C5.98275 2.92378 7.70366 2.21138 9.49836 2.21138C11.3177 2.21138 13.0139 2.92382 14.2924 4.20151C15.5707 5.47901 16.2838 7.17438 16.2838 8.99265Z" fill="white"/>
</svg>
